PathFileType	4	(X/Y/Z)	D:\TRACE\spotREDO_2-26-24\spot_justBody_Motion_3_4-platform.trc
DataRate	CameraRate	NumFrames	NumMarkers	Units	OrigDataRate	OrigDataStartFrame	OrigNumFrames
100.00	100.00	      24	5	mm	100.00	4376	      7000
Frame#	Time	Left_Front			Right_Front			Left_Aft			Right_Aft			Post			
		X1	Y1	Z1	X2	Y2	Z2	X3	Y3	Z3	X4	Y4	Z4	X5	Y5	Z5	

4376	43.750	-691.29230	20.05743	-568.89905	723.68225	25.60181	-484.43152	-762.33398	-20.63165	649.06018	807.86377	-13.35548	653.09991	18.35965	663.19830	-950.04376	
4377	43.760	-690.99512	20.05145	-568.95087	723.89044	25.75495	-484.54233	-762.20605	-20.59010	649.09576	808.18274	-13.18178	653.17029	18.46181	663.25684	-950.25378	
4378	43.770	-690.61353	19.92270	-568.96021	724.16040	25.80462	-484.54343	-762.01086	-20.46033	649.10797	808.58118	-13.09323	653.16797	18.79669	663.16260	-950.44385	
4379	43.780	-690.51776	19.85085	-568.93854	724.38348	25.79367	-484.56357	-761.78497	-20.52435	649.12115	808.69702	-13.08512	653.15637	19.01633	663.07367	-950.48608	
4380	43.790	-689.96698	19.75828	-569.03015	724.71741	25.73795	-484.57477	-761.40381	-20.69570	649.07855	808.95776	-13.01293	653.14948	19.22468	663.07678	-950.41577	
4381	43.800	-689.70697	19.62103	-569.04919	724.90094	25.68880	-484.68808	-760.93225	-20.54522	649.16888	809.20331	-12.98372	653.13660	19.35097	663.07733	-950.31940	
4382	43.810	-689.52277	19.66963	-568.98590	725.15033	25.71851	-484.63412	-760.77258	-20.37476	649.15662	809.41949	-12.88080	653.00879	19.59173	662.96918	-950.26184	
4383	43.820	-689.25421	19.66883	-568.97192	725.41510	25.63795	-484.68301	-760.50049	-20.23201	649.10187	809.60803	-12.85157	653.02667	19.80903	662.89478	-950.30267	
4384	43.830	-689.15613	19.59032	-568.99652	725.60773	25.52032	-484.64566	-760.26367	-20.12021	649.23041	809.73553	-12.84801	653.00055	19.45589	662.86810	-950.35291	
4385	43.840	-688.99078	19.53260	-569.04303	725.78790	25.42485	-484.66608	-760.12939	-20.36955	649.01453	809.88562	-12.80863	652.91101	19.65763	662.76758	-950.38617	
4386	43.850	-688.85864	19.44114	-569.01752	725.97412	25.33519	-484.67319	-759.93719	-20.41340	649.00159	810.07953	-12.77594	652.86896	20.31207	662.57581	-950.38812	
4387	43.860	-688.63397	19.48590	-568.98083	726.31909	25.09801	-484.49796	-759.73737	-20.35777	649.00690	810.24091	-12.84322	652.81232	20.51046	662.50458	-950.51770	
4388	43.870	-688.41949	19.52977	-569.01337	726.57275	25.14126	-484.46063	-759.43512	-20.28230	649.01257	810.38879	-12.83738	652.73083	20.79878	662.47632	-950.80432	
4389	43.880	-688.30389	19.55333	-569.07391	726.81854	25.18745	-484.44806	-759.27191	-20.22879	649.00647	810.67462	-12.80123	652.76025	20.92902	662.45856	-950.95844	
4390	43.890	-688.21283	19.54143	-569.07202	726.90698	25.18090	-484.47922	-759.14703	-20.27051	648.98218	810.75940	-12.82282	652.74225	21.62947	662.39087	-951.01788	
4391	43.900	-688.11847	19.46667	-569.10626	727.04443	25.17314	-484.52155	-759.06653	-20.27821	649.00256	810.30890	-12.96574	652.72217	21.04559	662.52350	-951.10596	
4392	43.910	-687.99542	19.51916	-569.15186	727.15454	25.16501	-484.54462	-758.97955	-20.23165	649.00244	810.87164	-12.91064	652.79529	21.65004	662.37640	-951.10925	
4393	43.920	-687.84320	19.55861	-569.17346	727.23096	25.20719	-484.53748	-758.85858	-20.12290	649.01294	811.11597	-12.80443	652.75122	21.63078	662.48895	-950.94061	
4394	43.930	-687.66046	19.62217	-569.09131	727.28809	25.23693	-484.58023	-758.72974	-20.05396	648.98340	811.55200	-12.69833	652.71753	21.91443	662.47620	-950.75366	
4395	43.940	-687.52472	19.62851	-569.12061	727.41302	25.27673	-484.63132	-758.55408	-20.01105	648.90765	811.69122	-12.70123	652.70532	22.03817	662.50305	-950.54968	
4396	43.950	-687.41602	19.55321	-569.16412	727.44421	25.24151	-484.63715	-758.40601	-20.07008	648.94257	811.67645	-12.84413	652.72583	22.16631	662.45331	-950.46173	
4397	43.960	-687.23102	19.53273	-569.19556	727.53326	25.25237	-484.62155	-758.29608	-20.08171	648.91644	811.60541	-12.94249	652.73627	22.41002	662.42072	-950.28821	
4398	43.970	-687.19537	19.52033	-569.05524	727.54016	25.23746	-484.65567	-758.21417	-20.11795	648.92346	811.88660	-13.11095	652.57440	22.35998	662.46051	-950.29803	
4399	43.980	-687.12964	19.56329	-569.06146	727.54004	25.36647	-484.73657	-758.11676	-20.08817	648.90759	812.02515	-12.90571	652.63269	22.52243	662.52783	-950.29346	
